<svg enable-background="new 0 0 442.533 442.533" height="442.533" viewBox="0 0 442.533 442.533" width="442.533" xmlns="http://www.w3.org/2000/svg"><path style="fill: #38a169" d="m434.539 98.499-38.828-38.828c-5.324-5.328-11.799-7.993-19.41-7.993-7.618 0-14.093 2.665-19.417 7.993l-187.294 187.577-83.939-84.225c-5.33-5.33-11.801-7.992-19.412-7.992-7.616 0-14.087 2.662-19.417 7.992l-38.828 38.829c-5.33 5.329-7.994 11.802-7.994 19.417 0 7.609 2.664 14.088 7.994 19.416l103.351 103.349 38.831 38.828c5.327 5.332 11.8 7.994 19.414 7.994 7.611 0 14.084-2.669 19.414-7.994l38.83-38.828 206.705-206.704c5.325-5.33 7.994-11.802 7.994-19.417.004-7.611-2.669-14.084-7.994-19.414z"/></svg>